<!DOCTYPE svg PUBLIC "-//W3C//DTD SVG 1.1//EN" "http://www.w3.org/Graphics/SVG/1.1/DTD/svg11.dtd">
<!-- Uploaded to: SVG Repo, www.svgrepo.com, Transformed by: SVG Repo Mixer Tools -->
<svg version="1.1" id="Layer_1" xmlns="http://www.w3.org/2000/svg" xmlns:xlink="http://www.w3.org/1999/xlink" viewBox="0 0 512 512" xml:space="preserve" width="800px" height="800px" fill="#000000">
<g id="SVGRepo_bgCarrier" stroke-width="0"/>
<g id="SVGRepo_tracerCarrier" stroke-linecap="round" stroke-linejoin="round"/>
<g id="SVGRepo_iconCarrier"> <path style="fill:#E5E5E5;" d="M256,0C114.616,0,0,114.616,0,256s114.616,256,256,256s256-114.616,256-256S397.384,0,256,0z"/> <path d="M320.968,423.976H191.032c-23.096,0-42-18.896-42-42v-252c0-23.096,18.904-42,42-42h129.936c23.104,0,42,18.904,42,42v252 C362.968,405.072,344.072,423.976,320.968,423.976z"/> <g> <rect x="164.12" y="127.624" style="fill:#FFFFFF;" width="183.752" height="247.352"/> <circle style="fill:#FFFFFF;" cx="256" cy="107.776" r="7.872"/> <path style="fill:#FFFFFF;" d="M273.808,408.408H238.2c-4.92,0-8.904-3.984-8.904-8.904s3.984-8.904,8.904-8.904h35.608 c4.92,0,8.904,3.984,8.904,8.904S278.72,408.408,273.808,408.408z"/> </g> <g> <rect x="187.232" y="316.48" style="fill:#3dad00;" width="137.528" height="8"/> <rect x="202.496" y="334.128" style="fill:#3dad00;" width="107.008" height="8"/> <rect x="192.96" y="161.848" style="fill:#3dad00;" width="126" height="126"/> </g> <path style="fill:#FFFFFF;" d="M250.272,208.68c0,14.04-8.88,21.376-18.592,21.376c-10.224,0-18.28-7.648-18.28-20.248 c0-11.976,7.328-21.064,18.792-21.064C243.76,188.752,250.272,197.216,250.272,208.68z M225.072,209.4 c0,7.024,2.376,12.08,6.92,12.08c4.44,0,6.608-4.544,6.608-12.08c0-6.816-1.856-12.08-6.712-12.08 C227.24,197.32,225.072,202.688,225.072,209.4z M232.504,258.152l38.528-69.4h8.464l-38.624,69.4H232.504z M298.6,236.568 c0,14.04-8.88,21.376-18.592,21.376c-10.12,0-18.176-7.648-18.28-20.248c0-11.976,7.328-21.064,18.792-21.064 C292.096,216.632,298.6,225.104,298.6,236.568z M273.504,237.288c-0.104,7.024,2.272,12.08,6.816,12.08 c4.44,0,6.608-4.544,6.608-12.08c0-6.816-1.752-12.08-6.608-12.08C275.568,225.208,273.504,230.576,273.504,237.288z"/> </g>
</svg>